<?xml version="1.0" encoding="UTF-8"?>
<svg id="Layer_1" data-name="Layer 1" xmlns="http://www.w3.org/2000/svg" viewBox="0 0 100 100">
  <defs>
    <style>
      .cls-1 {
        fill: #a2c5f9;
      }

      .cls-2 {
        fill: #f48462;
      }

      .cls-3 {
        fill: #fff;
      }

      .cls-4 {
        fill: #a37b90;
      }

      .cls-5 {
        fill: #6876aa;
      }

      .cls-6 {
        fill: #e6f4ff;
      }

      .cls-7 {
        fill: #92b4ea;
      }

      .cls-8 {
        fill: #e8e1ef;
      }

      .cls-9 {
        fill: #68b6d8;
      }

      .cls-10 {
        fill: #40507f;
      }

      .cls-11 {
        fill: #f7b369;
      }
    </style>
  </defs>
  <g>
    <path class="cls-8" d="M99.99458,50.00005c0,5.22241-.79357,10.26273-2.28418,14.99196-2.27346,7.22788-6.13405,13.74799-11.18499,19.14209-.10724.12869-.21448.24654-.33244.36461-.15013.16086-.31099.32172-.46113.47185-9.07238,9.26542-21.72654,15.02402-35.7319,15.02402-2.16622,0-4.32172-.13941-6.41287-.39668-.02145-.01083-.03217-.01083-.05362-.01083-5.14745-.6755-10.05898-2.12322-14.59517-4.23582-.37534-.17158-.75067-.35389-1.12601-.53619-7.38874-3.65684-13.73727-9.10456-18.48794-15.76408-.40751-.57909-.81501-1.15818-1.20107-1.75871-.96515-1.45845-1.8445-2.97062-2.63796-4.52547C1.9785,65.93571.00542,58.20381.00542,50.00005.00542,22.38611,22.38601.00542,49.99995.00542s49.99463,22.3807,49.99463,49.99464Z"/>
    <path class="cls-9" d="M86.52541,84.1341c-.10724.12869-.21448.24654-.33244.36461-.15013.16086-.31099.32172-.46113.47185-9.07238,9.26542-21.72654,15.02402-35.7319,15.02402-2.16622,0-4.32172-.13941-6.41287-.39668-.02145-.01083-.03217-.01083-.05362-.01083-5.14745-.6755-10.05898-2.12322-14.59517-4.23582.42895-18.1126.24665-33.96257.24665-34.26273.17158-.37544,8.55764-2.53083,19.72118-2.89544,17.56568-.55775,32.40751,9.35121,37.6193,25.94102Z"/>
    <path class="cls-9" d="M43.58708,99.59791c-.02145-.01083-.03217-.01083-.05362-.01083-5.14745-.6755-10.05898-2.12322-14.59517-4.23582-.37534-.17158-.75067-.35389-1.12601-.53619-7.38874-3.65684-13.73727-9.10456-18.48794-15.76408,9.63003-13.20107,17.50134-17.05094,19.86059-17.96247.48257-.19303.72922-.25737.72922-.25737l13.67292,38.76676Z"/>
    <path d="M51.14483,29.09453s11.34188.82649,12.25737-10.0474c.9748-11.57727-9.72504-12.957-14.39743-8.38338-4.67239,4.57362-3.94863,9.36247-3.94863,9.36247,0,0-3.10349-2.94155-6.65512.48697-2.60643,2.51625-1.40043,6.76708-1.40043,6.76708,0,0-5.85115-.37244-5.43314,4.7556.41791,5.12794,4.01051,7.81587,4.01051,7.81587l15.56686-10.75721Z"/>
    <path class="cls-2" d="M40.26086,48.88595l.87828,12.09555s2.43389,3.31871,9.55174,3.37995c5.30231.04568,7.06756-1.28043,7.06756-1.28043l-1.17973-6.0726-1.15839-5.92139-12.98134-1.88268-2.17812-.31839Z"/>
    <path d="M42.43898,49.20434c.05458.32794.20836.70874.43625,1.14155,3.14542,5.84547,10.63925,6.61094,13.70349,6.66252l-1.15839-5.92139-12.98134-1.88268Z"/>
    <path class="cls-2" d="M56.11523,23.3207s7.44944,14.70445,5.55882,23.31206-9.68558,7.71453-14.39743,6.34027-7.01716-4.08429-7.01716-4.08429c0,0-4.23067,1.70885-7.34509-2.13823-3.11442-3.84697-1.60064-8.55539.80247-9.75164,2.403-1.19614,5.43378.41523,5.43378.41523l-2.54584-4.25158s8.38853-22.82338,19.51046-9.84182Z"/>
    <path d="M39.14204,44.03137c-.09576,0-.1926-.02563-.28011-.07957l-4.71475-2.89727c-.25233-.15496-.33147-.48483-.17587-.73727.15389-.25287.48536-.33201.73727-.17587l4.71475,2.89716c.25233.15496.33137.48493.17587.73727-.10102.16493-.277.25555-.45716.25555Z"/>
    <path d="M35.22643,44.35072c-.1985,0-.38853-.10992-.48172-.29995-.1304-.26606-.02102-.58702.24504-.71743l2.46681-1.21062c.26702-.12987.58692-.02091.71732.24504.1304.26606.02091.58702-.24504.71743l-2.46681,1.21062c-.07592.0371-.15657.05491-.2356.05491Z"/>
    <path d="M58.10257,29.07029c-.10735,0-.21576-.03196-.31003-.09898-1.32-.9393-2.57566-.11099-2.62745-.07592-.24568.16493-.57812.1022-.74413-.1408-.16601-.24354-.10627-.57448.13619-.74252.07635-.0534,1.91432-1.29598,3.85641.08483.24139.1718.29802.50638.12676.74777-.10466.14713-.27013.22563-.43775.22563Z"/>
    <path d="M56.13946,42.76681c-.03818,0-.07689-.00418-.11571-.01255-.28954-.06391-.47228-.34981-.40836-.63882.98177-4.45394-1.5526-7.47003-1.57823-7.49995-.19271-.22413-.16804-.5629.05598-.7556.22413-.19271.56032-.16965.75507.05394.11946.13823,2.91614,3.4355,1.81437,8.43196-.05491.25029-.277.42102-.52311.42102Z"/>
    <path d="M57.93239,36.19265c-.29212,0-.53094-.23399-.53619-.52676l-.05072-2.88257c-.00525-.29587.23035-.54038.52676-.54563.277.00472.54038.23099.54563.52676l.05072,2.88257c.00525.29587-.23088.54038-.52676.54563h-.00944Z"/>
    <path d="M49.99319,36.75083c-.29223,0-.53094-.23399-.53619-.52676l-.05083-2.88257c-.00515-.29576.23046-.54038.52676-.54563.29169-.01201.54048.23099.54563.52686l.05083,2.88247c.00525.29587-.23088.54038-.52676.54563h-.00944Z"/>
    <path d="M57.63684,26.64584s-1.48997-2.33619-4.50885-2.13769c-3.01877.19839-4.62638,2.45137-4.62638,2.45137,0,0,1.69265,4.98488-2.21437,7.98198-3.90692,2.997-7.13662,2.4726-7.13662,2.4726l-3.05298-.8445-2.49887-4.19013,7.93566-9.90359,10.71592-6.69105,6.05298,4.74295-.66649,6.11807Z"/>
    <path d="M53.67641,45.79759c-1.01062,0-2.92397-.2859-4.03614-2.26895-.14509-.25812-.05287-.58542.20525-.72987.25866-.14456.58434-.0534.72997.20525,1.15507,2.05941,3.49255,1.70595,3.58992,1.68976.28954-.04772.56708.14971.61576.44139.04879.29115-.14713.56654-.43828.6163-.03507.00579-.2874.04611-.66649.04611Z"/>
    <path class="cls-3" d="M61.11448,40.61989c-.0429,0-.0859-.00043-.12879-.0015-1.37877-.03453-2.66059-.62102-3.60836-1.65158-.94349-1.02574-1.44365-2.36879-1.40847-3.78316.07378-2.9244,2.46466-5.23625,5.28225-5.17705,2.84021.07121,5.09072,2.50917,5.01748,5.43517-.0356,1.41383-.60225,2.73072-1.59603,3.70777-.96718.95099-2.22649,1.47035-3.55807,1.47035ZM61.12552,31.07737c-2.20397,0-4.0267,1.83324-4.08429,4.13351-.02885,1.13416.37126,2.21019,1.12525,3.02971.74928.8148,1.76043,1.27871,2.8459,1.30542,1.10692.03614,2.11914-.38488,2.9082-1.16139.79432-.7808,1.24729-1.83539,1.2756-2.97008.05855-2.33426-1.72332-4.27957-3.9718-4.33555-.03292-.00107-.06595-.00161-.09887-.00161Z"/>
    <path class="cls-3" d="M48.87887,41.49442c-.04504,0-.08954-.00054-.13501-.00161-2.92558-.07335-5.24622-2.51335-5.17298-5.43893.07389-2.92547,2.49512-5.24247,5.43893-5.17287,2.92547.07335,5.24622,2.51335,5.17287,5.43893-.07217,2.88043-2.43903,5.17448-5.30381,5.17448ZM48.87523,31.9518c-2.28611,0-4.17437,1.83067-4.23196,4.12933-.05866,2.33437,1.79292,4.28118,4.12772,4.3393,2.33694.0696,4.28064-1.79346,4.3393-4.12772.05866-2.33437-1.79282-4.28118-4.12772-4.3393-.0356-.00107-.07174-.00161-.10735-.00161Z"/>
    <path class="cls-3" d="M53.14751,36.27694c-.28225,0-.51893-.22038-.53458-.50574-.01684-.29587.2089-.54885.50477-.56558l3.73651-.21158c.29437-.02145.54885.20901.56558.50488.01673.29576-.2089.54874-.50477.56547l-3.73662.21158c-.01051.00043-.02038.00097-.03088.00097Z"/>
    <path class="cls-3" d="M44.08874,37.3059c-.08633,0-.17437-.02091-.25544-.06488-.04976-.02777-5.00332-2.6711-7.35442-.29437-.20783.21105-.54713.21212-.75818.00429-.21051-.20847-.21255-.54777-.00418-.75828,2.91764-2.94853,8.3985-.01887,8.62885.10627.26027.14145.35603.4666.21523.72686-.09737.17855-.28172.28011-.47185.28011Z"/>
    <path class="cls-3" d="M51.15405,65.14922c-3.09823,0-6.96107-.85619-11.19453-3.73555-.24515-.16654-.30842-.50005-.14198-.74509.16708-.24461.50166-.30799.7452-.14198,9.77705,6.65169,17.14134,2.07721,17.44976,1.87936.25029-.16021.5807-.08804.74091.16075.16032.24869.08901.57962-.15914.74038-.04815.03088-2.93491,1.84214-7.44021,1.84214Z"/>
    <path d="M46.41164,30.49035c-.10166,0-.20429-.02874-.29534-.08901-.24718-.16332-.31475-.49641-.15142-.74295,1.50445-2.2726,3.75292-2.03743,4.73201-1.59818.26971.12204.39013.43936.26863.70949-.12193.2681-.43925.38863-.70681.26971-.08225-.03614-2.03067-.85662-3.39946,1.21062-.10316.15603-.27378.24032-.44761.24032Z"/>
  </g>
  <g>
    <path class="cls-8" d="M100,50c0,6.71314-1.31893,13.11528-3.72107,18.95979-.21448.53619-.45051,1.06166-.69716,1.58713-6.0267,13.37265-17.76944,23.62466-32.12869,27.61394-1.01866.28954-2.05898.54692-3.10981.76139-.35399.07507-.69716.13941-1.05105.20375-3.0134.57909-6.12322.86863-9.28686.86863-1.76944,0-3.51743-.08579-5.24397-.2681-1.12601-.11796-2.24118-.27882-3.34584-.47185-1.45834-.25737-2.88472-.56836-4.30027-.9437-1.90874-.50402-3.78542-1.12601-5.59775-1.85523-4.19314-1.6622-8.10724-3.88204-11.65684-6.563-5.65158-4.2681-10.35936-9.71582-13.76954-15.96783-3.88204-7.10992-6.09115-15.26005-6.09115-23.92493C0,22.38606,22.39142.00536,50.00536.00536s49.99464,22.3807,49.99464,49.99464Z"/>
    <path class="cls-4" d="M63.4533,98.15914c-4.27882,1.20107-8.79367,1.83378-13.44772,1.83378-2.92772,0-5.80172-.24665-8.58981-.73995-1.45845-.25737-2.88472-.56836-4.30027-.9437-1.90895-.50402-3.78563-1.12601-5.59796-1.85523l3.54971-35.74263,19.35657-4.56836,7.69973,2.28418,1.32976,39.7319Z"/>
    <path d="M56.89008,49.90349c-5.07228-.9437-19.59239-24.30027-19.59239-24.30027,0,0-7.22799-8.91153-5.27625-10.09115,1.95174-1.1689,3.80708.62198,3.80708.62198,0,0,6.46638-1.01877,12.38606-1.25469.75067-.03217,1.49051-.05362,2.20912-.05362,2.17684-.01072,4.15013.12869,5.51206.51475,5.37255,1.52279,8.97587,10.32708,8.97587,10.32708,0,0,2.69158-.24665,3.82831,3.42091,1.14745,3.67828-6.7881,21.75871-11.84987,20.81501Z"/>
    <path class="cls-2" d="M56.82874,46.99078l.24879,12.3007s-2.1468,3.5808-9.33105,4.31121c-5.35174.54413-7.25952-.62971-7.25952-.62971l.62145-6.24493.61405-6.09019,12.93598-3.12086,2.17029-.52622Z"/>
    <path d="M54.65844,47.517c-.02434.33651-.14391.73544-.3334,1.1941-2.62831,6.20011-10.12622,7.6771-13.21662,8.01694l.61405-6.09019,12.93598-3.12086Z"/>
    <path class="cls-2" d="M38.41287,22.65555s-6.1438,15.55292-3.42584,24.07024c2.71807,8.51732,10.5082,6.88311,15.13877,5.05244,4.63056-1.83078,6.70466-4.78477,6.70466-4.78477,0,0,4.43399,1.3289,7.21866-2.84965,2.78477-4.17845.81351-8.79239-1.72633-9.77501-2.53973-.98263-5.44987.92976-5.44987.92976l2.17233-4.53383s-10.61694-22.26681-20.63239-8.10917Z"/>
    <path d="M38.41287,22.65555s4.78713-1.92643,6.82993-.23839c2.04299,1.68804,4.45082,15.94627,11.63012,12.88139,7.1792-3.06499,3.4652-12.20021,3.4652-12.20021,0,0-18.0578-15.46295-21.92525-.44279Z"/>
    <path class="cls-10" d="M41.16643,56.15271s-1.58456,21.03056-4.05094,42.15657c-13.37276-3.5496-24.53619-12.50402-31.02413-24.38606,3.96783-4.16086,10.31635-11.12064,15.79614-13.34048,9.56568-3.88204,19.27893-4.43003,19.27893-4.43003Z"/>
    <path class="cls-7" d="M45.71453,64.14456c-2.61609,0-4.53362-.40847-4.72204-.4504-.2891-.06381-.47131-.34971-.4074-.63882.06381-.28901.3466-.47013.63882-.40836.10992.02306,10.84118,2.29555,16.45759-4.2948.19475-.2252.53201-.25137.75603-.0607.2252.1926.25244.53094.0608.75603-3.59314,4.2163-8.94252,5.09705-12.78381,5.09705Z"/>
    <path class="cls-10" d="M95.58177,70.54692c-6.0267,13.37265-17.76944,23.62466-32.12869,27.61394-1.01866.28954-2.05898.54692-3.10981.76139-.35399.07507-.69716.13941-1.05105.20375-1.44772-16.35389-2.28408-44.9437-2.28408-44.9437,0,0,22.27335.33244,38.57362,16.36461Z"/>
    <path d="M57.42381,42.16686c-.13405,0-.2681-.05029-.37276-.15078-.21265-.20525-.21887-.54456-.01265-.75818l3.87485-4.01308c.20525-.21265.54456-.21791.75828-.01255.21256.20525.21887.54456.01255.75818l-3.87485,4.01308c-.10477.10885-.24504.16332-.38542.16332Z"/>
    <path d="M62.66531,41.1867c-.04397,0-.09008-.00525-.13512-.0178l-3.34595-.87346c-.28697-.07432-.45866-.36761-.38326-.65351.0743-.2859.36546-.46499.6535-.38327l3.34595.87346c.28697.07432.45866.36751.38327.6534-.06284.24193-.27957.40118-.51839.40118Z"/>
    <path d="M37.39829,29.65008c-.11422,0-.22832-.03657-.32462-.11099-.23153-.17802-.27968-.50477-.10584-.7393.04193-.05662,1.04622-1.36987,3.59528-1.00751.29319.04193.49641.31421.45449.6074-.0429.2933-.32366.48697-.60741.45458-1.87668-.27024-2.55946.55603-2.5867.59164-.10681.13298-.26606.20418-.42519.20418Z"/>
    <path d="M48.98509,29.79571c-.1215,0-.243-.04086-.34349-.12461-1.34048-1.11957-2.86745-.72686-2.93232-.70906-.2828.07646-.57909-.09212-.65663-.37694-.07753-.28483.08901-.57812.37276-.65662.0859-.02306,2.12386-.5645,3.90318.91946.22723.1896.25758.52783.06808.75507-.10584.12676-.25866.19271-.41158.19271Z"/>
    <path d="M37.90831,35.77973c-.3393-.02627-.55925-.28493-.53512-.5792l.23249-2.86316c.02295-.29534.29105-.51314.57694-.49115.29534.02413.51528.28279.49115.57705l-.23239,2.86316c-.02209.28064-.25662.4933-.53308.4933Z"/>
    <path d="M46.37846,36.12944c-.33931-.02617-.55926-.28483-.53512-.57909l.23248-2.86424c.02306-.29534.28483-.50788.57705-.49115.29534.02413.51517.28279.49115.57705l-.23249,2.86424c-.02198.28064-.25662.49319-.53307.49319Z"/>
    <path d="M39.96504,42.61512c-.20525,0-.4-.11839-.48901-.31732-1.7971-4.02359.89641-7.26584,1.01265-7.40097.19067-.22509.52891-.2534.75411-.06284.22615.19164.25447.52997.0638.75614-.09737.11517-2.3689,2.87475-.85244,6.26992.1215.27013,0,.58745-.27013.70788-.07131.03249-.14563.04718-.21898.04718Z"/>
    <path d="M43.31625,45.18928c-.2963,0-.53619-.23989-.53619-.53619,0-.29534.23882-.53512.53416-.53619.07539-.00107,1.85674-.03249,2.49769-1.5615.1141-.27228.42627-.40214.70167-.28697.27334.11421.40107.42842.28696.70166-.9185,2.19399-3.37952,2.2192-3.48429,2.2192Z"/>
  </g>
  <g>
    <path class="cls-8" d="M99.99464,50c0,5.22252-.79357,10.26273-2.28418,14.99196-1.96247,6.24129-5.11528,11.9571-9.20107,16.86863-.63271.78284-1.29759,1.53351-1.98391,2.27346-.10724.12869-.21448.24665-.33244.36461l-.12869.12869c-.10724.11796-.2252.23592-.33244.34316-1.437,1.45845-2.95978,2.84182-4.56836,4.12869-.39678.31099-.79357.62198-1.20107.92225-.40751.31099-.82574.61126-1.24397.9008-.42895.30027-.84718.58981-1.27614.86863s-.86863.55764-1.30831.82574c-.17158.10724-.35389.21448-.52547.32172-.2252.13941-.46113.27882-.69705.40751-.09651.05362-.18231.10724-.27882.16086-.30027.17158-.60054.33244-.9008.4933-.40751.2252-.82574.4504-1.24397.65416-.30027.15013-.60054.30027-.91153.4504-.18231.08579-.36461.18231-.55764.25737-.28954.13941-.57909.27882-.87936.39678-.41823.19303-.83646.37534-1.26542.54692-.30027.11796-.58981.24665-.89008.35389-.34316.12869-.6756.25737-1.01877.37534-.12869.05362-.25737.09651-.38606.13941-.42895.15013-.85791.30027-1.29759.43968-.37534.12869-.76139.24665-1.14745.34316-.31099.10724-.62198.19303-.93298.27882-.08579.02145-.17158.0429-.24665.06434-.47185.12869-.9437.24665-1.41555.35389-1.52279.36461-3.07775.65416-4.64343.86863-.55764.07507-1.12601.15013-1.69437.20375-.56836.06434-1.14745.10724-1.71582.15013-1.15818.07507-2.31635.11796-3.48525.11796-1.90885,0-3.80697-.10724-5.6622-.31099-.25737-.02145-.50402-.05362-.75067-.08579-.02145-.01072-.03217-.01072-.05362-.01072-2.36997-.31099-4.68633-.78284-6.93834-1.41555-2.64879-.72922-5.2118-1.68365-7.65684-2.82038-.37534-.17158-.75067-.35389-1.12601-.53619-2.41287-1.19035-4.70777-2.57373-6.86327-4.12869-2.16622-1.54424-4.20375-3.26005-6.09115-5.13673-.78284-.77212-1.53351-1.56568-2.25201-2.39142-1.17962-1.30831-2.26273-2.68097-3.2815-4.10724-.40751-.57909-.81501-1.15818-1.20107-1.75871-.96515-1.45845-1.8445-2.97051-2.63807-4.52547C1.97855,65.93566.00536,58.20375.00536,50,.00536,22.38606,22.38606.00536,50,.00536s49.99463,22.3807,49.99463,49.99464Z"/>
    <path d="M39.21126,29.28794s-17.07153,6.52912-17.9422,25.85072c-1.25855,27.92751,32.21019,21.45276,32.21019,21.45276,0,0,18.95614,1.96665,24.2-12.00783,5.24386-13.97437-11.61062-22.40997-11.61062-22.40997,0,0-20.43582-17.99507-26.85737-12.88568Z"/>
    <path class="cls-9" d="M88.50938,81.86059c-4.32172-11.59249-16.62198-29.22252-37.126-28.47185-1.3941.05362-2.74531.18231-4.0429.37534-.0429.01072-.08579.02145-.12869.02145-18.13405,2.84182-30.13405,19.06702-34.6059,29.37265.7185.82574,1.46917,1.6193,2.25201,2.39142,1.8874,1.87668,3.92493,3.59249,6.09115,5.13673,2.1555,1.55496,4.4504,2.93834,6.86327,4.12869.37534.18231.75067.36461,1.12601.53619,2.44504,1.13673,5.00804,2.09115,7.65684,2.82038,2.25201.63271,4.56836,1.10456,6.93834,1.41555.02145,0,.03217,0,.05362.01072.24665.03217.4933.06434.73995.08579,1.86595.20375,3.76408.31099,5.67292.31099,1.1689,0,2.32708-.0429,3.48525-.11796.56836-.0429,1.14745-.08579,1.71582-.15013.56836-.05362,1.13673-.12869,1.69437-.20375,1.56568-.21448,3.12064-.50402,4.64343-.86863.47185-.10724.9437-.2252,1.41555-.35389.07507-.02145.16086-.0429.24665-.06434.31099-.08579.62198-.17158.93298-.27882.38606-.09651.77212-.21448,1.14745-.34316.43968-.13941.86863-.28954,1.29759-.43968.12869-.0429.25737-.08579.38606-.13941.34316-.11796.6756-.24665,1.01877-.37534.30027-.10724.58981-.23592.89008-.35389.42895-.17158.84718-.35389,1.26542-.54692.30027-.11796.58981-.25737.87936-.39678.19303-.07507.37534-.17158.55764-.25737.31099-.15013.61126-.30027.91153-.4504.41823-.20375.83646-.42895,1.24397-.65416.30027-.16086.60054-.32172.9008-.4933.09651-.05362.18231-.10724.27882-.16086.23592-.12869.47185-.2681.69705-.40751.17158-.10724.35389-.21448.52547-.32172.43968-.2681.87936-.54692,1.30831-.82574s.84718-.56836,1.27614-.86863c.41823-.28954.83646-.58981,1.24397-.9008.40751-.30027.80429-.61126,1.20107-.92225,1.60858-1.28686,3.13136-2.67024,4.56836-4.12869l2.77748-3.10992Z"/>
    <path class="cls-9" d="M75.60772,92.93662c-7.48525,4.48257-16.24654,7.0563-25.60858,7.0563-1.90885,0-3.80697-.10724-5.6622-.31099-.25727-.02145-.50402-.05362-.75067-.08579-.02145-.01072-.03206-.01072-.05362-.01072-2.36997-.31099-4.68622-.78284-6.93834-1.41555-2.64879-.72922-5.2118-1.68365-7.65673-2.82038-.37544-.17158-.75067-.35389-1.12611-.53619-2.41287-1.19035-4.70767-2.57373-6.86316-4.12869-.09662-7.36729-.15024-13.17962-.15024-13.17962l19.04558-14.13405,9.35121-6.93834c.11807,0,.23592,0,.35389.01072,5.14745.10724,9.49072,1.15818,12.91153,2.42359.54692.21448,1.07239.41823,1.57641.63271,4.75067,2.01609,7.3245,4.27882,7.3245,4.27882,0,0,2.23046,14.77748,4.24654,29.15818Z"/>
    <path class="cls-2" d="M46.90627,46.46906l.39432,10.56043s1.97855,3.24343,8.58252,3.53265c4.91957.21555,6.66713-1.18263,6.66713-1.18263l-.76472-4.83946-.88182-5.5333-11.98638-2.17115-2.01105-.36654Z"/>
    <path d="M46.90627,45.93212c.04.30627.17029.66466.36761,1.07378,2.72836,5.52783,11.66938,7.38638,14.51164,7.53416l-.88182-5.5333-13.99743-3.07464Z"/>
    <path class="cls-2" d="M62.45512,23.25984s6.43357,13.89019,4.39796,21.81705c-2.0356,7.92697-9.24086,6.84365-13.56912,5.41437-4.32815-1.42928-6.3792-4.01962-6.3792-4.01962,0,0-3.9822,1.44783-6.74702-2.22424-2.76483-3.67206-1.20622-7.99239,1.06306-9.02413,2.26938-1.03174,5.0296.56268,5.0296.56268l-2.22413-4.02895s8.5304-20.9082,18.42885-8.49716Z"/>
    <path d="M64.53223,29.03174c-.02617,0-.05233-.00204-.07903-.00568l-2.74649-.4074c-.29319-.04354-.49534-.31625-.4518-.60901.04397-.29319.31571-.49276.6089-.4519l2.74649.4074c.29319.04343.49534.31625.4519.60901-.03989.26649-.26863.45759-.52997.45759Z"/>
    <path d="M54.28954,30.16697c-.20944,0-.40783-.12354-.49426-.32826-.11464-.27335.01362-.58756.28643-.7022l3.18735-1.33887c.27378-.11206.58745.01351.70209.28633.11475.27335-.01351.58756-.28633.7022l-3.18735,1.33898c-.0681.0282-.13823.04182-.20794.04182Z"/>
    <path d="M62.37072,40.42273c-.0178,0-.03614-.00107-.05448-.00257-.2948-.02992-.50949-.2933-.47968-.58756.44043-4.33609-1.35614-6.51861-1.37448-6.54005-.19056-.22574-.16386-.56343.0607-.75507.22413-.19164.56032-.16601.75357.05705.08633.10048,2.117,2.51914,1.62745,7.34595-.02831.27646-.26134.48225-.53308.48225Z"/>
    <path d="M57.99056,45.11807c-.21147,0-.43249-.02874-.6608-.09373-1.77351-.50681-1.97298-2.54059-1.98091-2.62702-.01512-.1733.05448-.34349.18745-.45609.13308-.1126.31314-.15389.48129-.10992l4.1644,1.07914c.1733.04504.31314.17383.3718.34295.05909.16976.02928.35721-.07914.50016-.04815.06327-1.05458,1.3645-2.48408,1.3645ZM56.64697,43.10209c.17223.3645.46917.74563.97705.89072.50692.14509.98231-.04708,1.34155-.29008l-2.31861-.60064Z"/>
    <path d="M46.26917,41.57995c-.07378,0-.14917-.01523-.22145-.04815l-5.65512-2.57051c-.26971-.12257-.38853-.44032-.26606-.71003.1215-.26917.43828-.3896.71003-.26595l5.65523,2.5704c.2696.12257.38853.44043.26595.71003-.08954.19743-.28429.31421-.48858.31421Z"/>
    <path d="M41.23142,42.88643c-.13823,0-.27646-.0534-.38123-.15925-.20836-.21051-.20633-.55035.00418-.75818l2.49298-2.4637c.21105-.2089.55035-.20579.75828.00418.20836.21051.20622.55035-.00418.75828l-2.49308,2.46359c-.10466.1037-.24086.15507-.37694.15507Z"/>
    <path d="M54.28944,24.76332s3.22016-.46005,6.58048,1.45201c3.36021,1.91206,4.05019,3.77534,4.05019,3.77534,0,0,2.07818-4.93694-2.47689-9.29308-4.55507-4.35625-13.2948-5.56397-18.33287-.41029-5.03818,5.15367-4.72976,9.70338-4.72976,9.70338l6.86981,5.79528s10.60954-1.92311,8.03903-11.02263Z"/>
    <path d="M42.88461,21.67282s-6.48172-12.30938-13.05169-7.10777c-6.56987,5.20161.74595,15.70123,7.27174,16.46702,6.52579.76568,5.77995-9.35925,5.77995-9.35925Z"/>
    <path class="cls-9" d="M44.33694,99.68193c-.25727-.02145-.50402-.05362-.75067-.08579-.02145-.01072-.03206-.01072-.05362-.01072-2.36997-.31099-4.68622-.78284-6.93834-1.41555l3.24933-34.79893.10724-1.10456,6.95539-3.4978-1.25298-3.0385s7.3807,29.00279-1.31635,43.95185Z"/>
    <path class="cls-11" d="M76.13319,92.61491c-.17158.10724-.35378.21448-.52547.32172-.22509.13941-.46113.27882-.69694.40751,2.32697-12.15013-2.43442-19.10992-2.48794-19.18499-.17169-.24665-.12869-.60054.10713-.78284.24676-.18231.5792-.12869.75067.11796.21458.30027,4.86863,7.0563,2.85255,19.12064Z"/>
    <path class="cls-11" d="M56.48622,61.09866c-6.08879,0-9.53523-3.65812-9.5808-3.70735-.19946-.2178-.18488-.55603.03249-.75603.21834-.20011.55603-.18542.75764.03035.22574.24504,5.65523,5.95882,15.25791,1.98038.27282-.11421.58756.01673.7007.29008.11357.27335-.0163.58745-.29008.70059-2.56322,1.06295-4.86509,1.46198-6.87786,1.46198Z"/>
    <path class="cls-6" d="M47.66853,45.93212c0,1.11303-.9022,2.01534-2.01523,2.01534-1.11292,0-2.01523-.90231-2.01523-2.01534,0-1.11292.90231-2.01523,2.01523-2.01523,1.11303,0,2.01523.90231,2.01523,2.01523Z"/>
    <path d="M55.883,35.94681c-.29641,0-.53619-.23989-.53619-.53619v-2.46627c0-.14091.05544-.27603.15442-.37651l1.0918-1.10745c.20783-.21158.54713-.21265.75818-.00525.21105.20783.21319.54713.00525.75818l-.93727.95088v2.24643c0,.2963-.23979.53619-.53619.53619Z"/>
    <path d="M63.98606,35.94681c-.2963,0-.53619-.23989-.53619-.53619v-2.46627c0-.14091.05555-.27603.15453-.37651l1.09126-1.10745c.20729-.21158.54606-.21416.75818-.00525.21105.20783.21308.54713.00525.75818l-.93684.95088v2.24643c0,.2963-.23979.53619-.53619.53619Z"/>
  </g>
  <g>
    <path class="cls-8" d="M99.99464,50c0,9.54413-2.68097,18.46638-7.31367,26.05898-.80429,1.31893-1.67292,2.58445-2.58445,3.81769-.6756.9008-1.37265,1.76944-2.1126,2.61662-1.91957,2.2519-4.0429,4.32172-6.32708,6.20901-.75067.61126-1.52279,1.2118-2.31635,1.78027-.42895.32172-.86863.6326-1.31903.93298-.77212.51464-1.55496,1.01877-2.35925,1.49062-.15013.10724-.31099.19303-.47185.28944-.16086.09662-.33244.19314-.50402.28965-1.58713.91142-3.24933,1.72643-4.9437,2.45566-3.57105,1.54424-7.36729,2.67035-11.31367,3.33523-.43968.08568-.86863.15003-1.30831.21437-1.11528.16097-2.24129.27882-3.37802.36472-.11796.01072-.23592.02145-.35389.02145-.78284.05362-1.58713.08568-2.39142.09641-.33244.02155-.66488.02155-.99732.02155-4.03217,0-7.96783-.48257-11.72118-1.38338-3.0563-.72933-5.99464-1.74799-8.80429-3.03485-2.23056-.9866-4.37534-2.1555-6.42359-3.46381-.76139-.48257-1.51206-.99743-2.25201-1.53362-.86863-.62188-1.71582-1.27614-2.54155-1.97308-2.1555-1.75871-4.16086-3.71056-5.99464-5.82306-.40751-.47185-.80429-.9437-1.19035-1.42627-.41823-.51475-.82574-1.04021-1.22252-1.57641-.17158-.2252-.33244-.43968-.4933-.66499-1.31903-1.83367-2.50938-3.76397-3.57105-5.78005-.42895-.79357-.82574-1.60858-1.20107-2.42359C1.63539,64.54155.00536,57.45308.00536,50,.00536,22.38606,22.38606.00536,50,.00536s49.99464,22.3807,49.99464,49.99464Z"/>
    <path class="cls-7" d="M79.34048,90.48257c-.42895.32172-.86863.6326-1.31903.93298-.92225.62198-1.86595,1.22252-2.8311,1.78005-5.44772,3.18509-11.5496,5.36193-18.0697,6.29491-.31099.043-.62198.08579-.9437.11807-1.6622.21448-3.35657.33244-5.08311.3645h-.09651c-.33244.02155-.66488.02155-.99732.02155-4.03217,0-7.96783-.48257-11.72118-1.38338-5.47989-1.31914-10.61662-3.53898-15.22788-6.49866-1.67292-1.06177-3.27078-2.23056-4.79357-3.5067-2.1555-1.75871-4.16086-3.71056-5.99464-5.82306-.40751-.47185-.80429-.9437-1.19035-1.42627-.63271-8.56836,7.43164-16.82574,8.86863-18.50949,4.62198-5.46917,17.6193-8.51475,30.3807-8.15003,0,0,17.38338-.06434,24.62198,7.66745,3.18499,3.39957,4.24665,15.51753,4.39678,28.11807Z"/>
    <path class="cls-7" d="M21.45319,61.37491l-.65416,29.20601c-.86863-.62198-1.71582-1.27614-2.54155-1.9733-2.1555-1.75871-4.16086-3.71035-5.99464-5.82306-.40751-.47185-.80429-.9437-1.19035-1.42627-.41823-.51464-.82574-1.04011-1.22252-1.5763-.17158-.22531-.33244-.43979-.4933-.66488-1.31903-1.83389-2.50938-3.76408-3.57105-5.78016,6.3852-6.12225,15.66756-11.96204,15.66756-11.96204Z"/>
    <path class="cls-7" d="M87.98391,82.4933c-1.91957,2.2519-4.0429,4.32172-6.32708,6.20901-.75067.61126-1.52279,1.2118-2.31635,1.78027-.42895.32172-.86863.6326-1.31903.93298-.20375.13941-.41823.27882-.62198.40751-.25737.17147-.51475.34316-.77212.4933-.47185.31099-.95442.60054-1.437.87925-1.74799,1.0296-3.57105,1.94102-5.44772,2.74531l-6.20912-5.11517,11.83914-27.97866,12.61126,19.64622Z"/>
    <path class="cls-2" d="M40.79228,45.6518l-.81416,10.03142s.68311,3.04204,7.24622,4.11517c4.88922.79946,7.55732-2.15131,7.55732-2.15131l-.08322-2.16525-.22381-5.6326-11.71678-3.59239-1.96558-.60504Z"/>
    <path d="M42.75785,46.25684c.00354.31067.09115.68418.23979,1.11635,2.06917,5.84633,8.87893,7.62338,11.7008,8.10863l-.22381-5.6326-11.71678-3.59239Z"/>
    <path class="cls-2" d="M59.08182,24.31185s4.7778,14.64043,1.803,22.31786c-2.97491,7.67743-10.0445,5.73952-14.19871,3.79775-4.15421-1.94188-5.89566-4.7733-5.89566-4.7733,0,0-4.15013.97362-6.47625-3.02316s-.25598-8.12783,2.13362-8.88901c2.3896-.76129,4.95775,1.15936,4.95775,1.15936l-1.74349-4.28912s11.00483-19.87475,19.41973-6.30038Z"/>
    <path d="M56.75271,42.18552c-.07024,0-.14145-.01351-.21051-.0429-.27228-.11625-.39903-.43142-.28279-.7037,1.04729-2.45426-.57394-5.41748-.59067-5.44729-.14349-.25866-.05126-.58488.2074-.72944.25651-.14349.58434-.05233.72891.20633.07742.1393,1.89651,3.44697.64085,6.39131-.08686.20375-.28482.32568-.49319.32568Z"/>
    <path d="M40.17362,41.40279c-.12772,0-.25448-.05759-.3393-.16761l-3.39517-4.4356c-.14241-.18692-.10788-.45501.07957-.59796.18542-.14198.45448-.10895.59903.07957l3.39517,4.4356c.14241.18692.10788.45501-.07957.59796-.07753.0592-.16858.08804-.25973.08804Z"/>
    <path d="M36.24954,39.90209c-.22724,0-.41576-.17812-.42617-.40643-.01158-.2356.17062-.4356.40634-.44665l2.67882-.12665c.23045-.00944.4357.17115.44611.40579.01157.2356-.17062.4356-.40634.44665l-2.67882.12676c-.00633.00054-.01362.00054-.01995.00054Z"/>
    <path d="M50.93415,36.29115c-.29008,0-.5289-.23196-.53619-.52365l-.06284-2.65008c-.00729-.29587.22724-.54145.52365-.54874.31936.00472.54145.22777.54874.52365l.06284,2.64997c.00729.29587-.22723.54145-.52365.54885h-.01255Z"/>
    <path d="M58.76343,36.47174c-.2859,0-.52365-.22509-.53619-.51314l-.11421-2.64847c-.01255-.29587.21684-.54617.51314-.55871.29437-.03088.54563.21673.55925.5126l.11421,2.64847c.01255.29587-.21684.54617-.51314.55871-.0074.00054-.01576.00054-.02306.00054Z"/>
    <path d="M49.63978,31.31925c-.10584,0-.21265-.03088-.30584-.09523-.243-.16912-.3037-.50327-.13512-.74617,1.22949-1.77094,3.56172-.96086,3.66123-.92633.27753.09952.42198.40525.32354.68386-.09941.27903-.40729.42359-.68386.32622-.06799-.02413-1.66295-.56654-2.41908.52676-.10478.15024-.27122.23088-.44087.23088Z"/>
    <path d="M59.86927,31.30617c-.18016,0-.35603-.09051-.45662-.25555-.11936-.1911-.53512-.70584-1.02938-.80579-.2681-.05448-.54456.0178-.83571.22413-.24193.16912-.57598.11357-.74777-.12933-.16965-.24193-.11206-.57651.12987-.74724.53416-.37598,1.11217-.5126,1.67453-.39689,1.03572.21469,1.65576,1.18488,1.72279,1.29491.15389.25233.07433.58273-.17802.73727-.08697.0534-.18327.0785-.27968.0785Z"/>
    <path d="M59.08107,24.31357l-.90466-1.32247s-1.11174.76225-3.58574,1.28461c-3.79968.8237-8.26263.59164-8.26263.59164,0,0,.74917,1.08815.57673,5.00536-.1719,3.92933-4.24772,6.117-4.24772,6.117-1.43324-1.0089-2.64161-1.58166-3.65694-1.88558-.44-.12483-.82971-.20375-1.19367-.24751-2.35131-.23131-3.2267,1.22005-3.2267,1.22005,0,0-5.41029-8.62349.84879-14.81941,4.38917-4.32547,10.26584-4.0489,13.38005-3.49008,1.05855.19335,1.79249.41351,2.06177.4978.07335.0208.11004.03121.11004.03121,0,0,9.37114-2.22241,10.93029-.83314,1.55872,1.37727-1.70488,7.9081-2.8296,7.85051Z"/>
    <path d="M53.66016,46.20182c-.36654,0-.75925-.06338-1.16461-.22938-.53822-.22102-.92257-.58906-1.1111-1.06509-.33201-.83517.03871-1.69651.0828-1.79239.05962-.13244.17168-.23453.30885-.28322.13405-.04761.28589-.03979.4179.02509l3.49887,1.73898c.16654.08279.27753.24504.29534.42992.01673.18477-.06177.36547-.21051.47753-.04815.03668-.93834.69855-2.11753.69855ZM52.32171,44.11828c-.00418.13351.01051.27282.0608.39796.08161.20214.25126.35399.51936.46338.47764.19635.93941.17383,1.31539.08064l-1.89555-.94198Z"/>
    <path class="cls-1" d="M56.17694,99.60858c-1.6622.21448-3.35657.33244-5.08311.3645l-3.72118-39.68901,3.65684.95442,5.14745,38.37008Z"/>
    <path class="cls-6" d="M54.93909,55.16429s4.26006,11.84311,3.01705,11.66713c-1.243-.17609-8.89898-6.2681-8.89898-6.2681,0,0-5.01201,6.89308-6.76,7.02113-1.74799.12815-2.31903-12.33651-2.31903-12.33651,0,0,1.32257,3.52472,7.84804,4.12193,6.52547.59721,7.11292-4.20558,7.11292-4.20558Z"/>
    <path class="cls-6" d="M75.6622,92.90617c-.15013.10724-.31099.19303-.47185.28944-.16086.09662-.33244.19314-.50402.28965l-4.27882-20.0429c-.05362-.28965.12869-.56836.41823-.63271s.56836.11796.63271.4074l4.20375,19.68912Z"/>
  </g>
  <g>
    <path class="cls-8" d="M99.99464,50c0,7.18499-1.52279,14.02681-4.24665,20.20375-.60054,1.34048-1.24397,2.64879-1.95174,3.92493-.35389.65416-.72922,1.29759-1.11528,1.93029-.68633,1.12601-1.41555,2.20912-2.17694,3.26005-.12869.17158-.24665.34316-.36461.50402-.01072.02145-.02145.03217-.0429.05362-2.44504,3.27078-5.28686,6.23056-8.43968,8.82574-1.1689.95442-2.3807,1.86595-3.63539,2.71314-.92225.62198-1.86595,1.22252-2.8311,1.78016-.66488.38606-1.34048.76139-2.02681,1.12601-4.92225,2.57373-10.31635,4.35389-16.0429,5.1689-2.00536.28954-4.0429.4504-6.12332.48257-.33244.02145-.66488.02145-.99732.02145-4.03217,0-7.96783-.48257-11.72118-1.38338-5.47989-1.31903-10.61662-3.53887-15.22788-6.49866-1.67292-1.06166-3.27078-2.23056-4.79357-3.5067-2.1555-1.75871-4.16086-3.71046-5.99464-5.82306-.83646-.97587-1.65147-1.97319-2.41287-3.00268-.17158-.2252-.33244-.43968-.4933-.66488-1.83378-2.563-3.44236-5.30831-4.77212-8.20375C1.63539,64.54155.00536,57.45308.00536,50,.00536,22.38606,22.38606.00536,50,.00536s49.99464,22.3807,49.99464,49.99464Z"/>
    <path class="cls-10" d="M81.65598,88.7007c-1.1689.95442-2.3807,1.86595-3.63539,2.71314-.92225.62198-1.86595,1.22252-2.8311,1.78016-5.44772,3.18499-11.5496,5.36193-18.0697,6.29491-2.00536.28954-4.0429.4504-6.12332.48257-.33244.02145-.66477.02145-.99721.02145-4.03228,0-7.96794-.48257-11.72129-1.38338-5.47989-1.31903-10.61662-3.53887-15.22788-6.49866-1.67281-1.06166-3.27078-2.23056-4.79357-3.5067-2.1555-1.75871-4.16086-3.71046-5.99453-5.82306-.83657-.97587-1.65158-1.97319-2.41287-3.00268,3.41008-8.07507,9.64064-19.64611,18.13394-22.47721,13.37265-4.46113,41.86595,1.82306,41.86595,1.82306,0,0,9.75871,4.73995,11.80697,29.57641Z"/>
    <path class="cls-10" d="M75.18949,93.19399c-5.44772,3.18499-11.5496,5.36193-18.0697,6.29491-2.00536.28954-4.0429.4504-6.12332.48257-.33244.02145-.66477.02145-.99721.02145-4.03228,0-7.96794-.48257-11.72129-1.38338-5.47989-1.31903-10.61662-3.53887-15.22788-6.49866-1.67281-1.06166-3.27078-2.23056-4.79357-3.5067.08579-13.07239,1.07239-25.01877,4.23592-27.87131,1.58713-1.437,3.48525-2.563,5.49062-3.43164,4.64343-2.00536,9.83378-2.68097,13.24397-2.90617,2.26273-.15013,3.7319-.09651,3.7319-.09651,0,0,3.03485.11796,7.10992.56836,1.12601.13941,2.26273.27882,3.45308.4504,6.93834.99732,15.06702,2.93834,17.1689,6.6059,1.81233,3.15282,2.39142,17.27614,2.49866,31.27078Z"/>
    <path d="M59.59785,28.1126l-20.66488,15.64611s-11.26005-11.30295-6.68096-17.75871c2.84182-4.02145,8.58981-5.95174,12.52547-6.84182.4504-.09651.86863-.18231,1.26542-.25737,1.69437-.33244,2.8311-.42895,2.8311-.42895l.01072.06434c.7185-.2681,7.88204-5.44772,11.80697-3.7319,5.3941,2.34853-1.09383,13.30831-1.09383,13.30831Z"/>
    <path class="cls-2" d="M41.0771,46.20322l-.68139,11.10295s1.80643,3.31464,8.26949,4.24118c4.81458.69019,6.58155-.2993,6.58155-.2993l-.32954-5.66477-.32858-5.5245-11.5704-3.29973-1.94113-.55582Z"/>
    <path d="M43.01823,46.75903c.00944.30488.10273.66981.25695,1.09115,2.14412,5.69866,8.86273,7.31142,11.64203,7.73308l-.32858-5.5245-11.5704-3.29973Z"/>
    <path class="cls-2" d="M58.61737,24.90273s4.97287,14.2785,2.20107,21.87196c-2.77169,7.59346-9.74853,5.82799-13.8637,4.00225-4.11517-1.82584-5.87925-4.57137-5.87925-4.57137,0,0-4.05501,1.03582-6.41555-2.84236-2.36043-3.87818-.40836-7.97319,1.92257-8.76654,2.33083-.79346,4.88879,1.04214,4.88879,1.04214l-1.79421-4.17641s10.41802-19.72129,18.94027-6.55968Z"/>
    <path d="M40.72,41.70188c-.11882,0-.23871-.03979-.33877-.12097l-4.78177-3.90413c-.22938-.18702-.26338-.52525-.07592-.75464.18638-.22981.52311-.26434.75453-.07592l4.78177,3.90424c.22938.18692.26338.52515.07593.75453-.10574.12987-.26027.19689-.41577.19689Z"/>
    <path d="M36.1645,41.36043c-.2519,0-.47657-.17802-.52579-.43464-.05652-.29062.13405-.5718.42466-.62777l3.34595-.64611c.29008-.05812.5718.13405.62788.42456.05651.29062-.13405.5718-.42466.62788l-3.34595.64611c-.0341.00686-.06863.00997-.10209.00997Z"/>
    <path d="M48.99903,30.87689c-.12568,0-.25137-.04343-.35292-.13244-.22306-.19475-.24558-.53362-.05072-.75668,1.66509-1.90542,3.7067-1.41008,4.55389-.88225.25083.15657.32783.48751.17126.73877-.15603.24933-.48536.32676-.73619.17287-.17544-.10627-1.73587-.97759-3.18155.67646-.10628.1215-.25448.18327-.40376.18327Z"/>
    <path d="M59.78627,30.42134c-.13147,0-.26284-.04761-.36601-.14445-1.07453-1.00386-2.31389-.3896-2.32601-.38434-.26488.13458-.58691.02874-.72096-.2341-.13459-.26338-.02982-.58649.23399-.72107.07753-.04032,1.9259-.95764,3.54499.55614.2163.20214.22777.54145.02563.75764-.10574.11314-.24869.17019-.39164.17019Z"/>
    <path d="M57.26863,40.86928c-.06123,0-.12354-.01051-.18424-.03249-.27807-.10209-.42102-.40997-.31946-.68804,1.42166-3.88525-.48278-6.15464-.50209-6.17716-.19379-.22413-.16869-.56236.05544-.75614.22252-.19324.56236-.16912.75614.05555.09587.11099,2.33383,2.77566.69802,7.24643-.07957.21727-.28493.35185-.50381.35185Z"/>
    <path d="M59.40879,35.75292c-.24879,0-.47185-.17383-.52472-.4267l-.53877-2.58938c-.00739-.03721-.01105-.07378-.01105-.10992,0-.24879.17383-.47185.4267-.52472.29019-.0607.5734.12622.63464.41576l.53887,2.58938c.00729.0371.01094.07378.01094.10992,0,.24869-.17384.47174-.42671.52472-.03721.00729-.07389.01094-.10992.01094Z"/>
    <path d="M51.2978,35.94145c-.24879,0-.47185-.17383-.52472-.42681l-.53877-2.58874c-.06027-.29008.12622-.57394.41576-.63464.29266-.05973.57383.12568.63464.41576l.53877,2.58874c.06027.29008-.12622.57394-.41576.63464-.03721.0074-.07378.01105-.10992.01105Z"/>
    <path d="M59.59378,28.11164s-1.06874-2.30606-3.83732-2.49501-4.50552,1.66252-4.50552,1.66252c0,0,.92879,4.73855-2.98949,6.98509-3.91828,2.24643-6.79013,1.37458-6.79013,1.37458l-2.67196-1.14123-1.75903-4.11475,8.42552-8.03196,10.56011-4.77147,4.92215,5.05212-1.35432,5.48011Z"/>
    <path d="M54.20494,45.12161c-.4325,0-2.98992-.10885-3.98735-2.62488-.10895-.27496.02563-.58702.30102-.69587.27335-.10949.58649.02563.69587.30102.78445,1.97984,2.92086,1.95153,3.01458,1.94681.2785-.01566.54241.2252.55078.52.00944.29534-.22091.54198-.51625.55196-.00783.00043-.02831.00097-.05865.00097Z"/>
    <path class="cls-3" d="M52.21566,62.40965c-7.26842,0-12.80107-5.0341-13.06917-5.28236-.21727-.20107-.22982-.54038-.02928-.75818.20161-.2178.54038-.23142.75764-.02928.07282.06702,7.31818,6.63957,15.74445,4.58906.28644-.07024.57748.10574.64826.39271.07013.28794-.10638.57802-.39378.64826-1.25512.30681-2.47936.43979-3.65812.43979Z"/>
    <path class="cls-10" d="M90.50402,79.31903c-.13941.19303-.2681.37534-.40751.55764-2.44504,3.27078-5.28686,6.23056-8.43968,8.82574-1.15818.9437-2.35925,1.85523-3.60322,2.69169l-9.30831-3.96783,3.33416-26.34477,18.42455,18.23753Z"/>
  </g>
  <g>
    <path class="cls-8" d="M100,50c0,9.87657-2.86327,19.08847-7.81769,26.85244-.87936,1.37276-1.82306,2.70252-2.82038,3.98928-3.08847,3.92493-6.74531,7.37802-10.85255,10.23067-.4504.31088-.91153.62198-1.37265.92214-2.52011,1.63013-5.20107,3.04568-8.01072,4.21448-.73995.30038-1.47989.58981-2.23056.85791-5.27614,1.89812-10.95979,2.92772-16.89008,2.92772-.38606,0-.78284,0-1.17962-.01083-4.95442-.11786-9.73727-.95442-14.24129-2.41287-6.14477-1.98391-11.76407-5.13662-16.60054-9.17952-.21448-.17169-.43968-.36472-.65416-.54702-1.47989-1.27614-2.87399-2.63807-4.19303-4.07496-.17158-.18231-.33244-.36472-.4933-.55775C4.77212,74.38606,0,62.75056,0,50,0,22.38606,22.39142.00536,50.00536.00536,77.60858.00536,100,22.38606,100,50Z"/>
    <path class="cls-10" d="M34.58445,97.57094c-6.14477-1.98391-11.76407-5.13662-16.60054-9.17952-.21448-.17169-.43968-.36472-.65416-.54702-1.47989-1.27614-2.87399-2.63807-4.19303-4.07496-.17158-.18231-.33244-.36472-.4933-.55775,5.04021-14.68097,13.41555-26.38059,23.06702-26.34853,12.0429.09662,5.76944,22.72386-1.12601,40.70777Z"/>
    <path d="M56.3037,27.17212s14.31067-3.85051,24.95528,9.18563,4.02992,29.08365-12.8341,28.62295c-16.86411-.4607-20.78531-17.69501-20.78531-17.69501l8.66413-20.11357Z"/>
    <path class="cls-10" d="M77.13673,91.99453c-2.52011,1.63013-5.20107,3.04568-8.01072,4.21448-.73995.30038-1.47989.58981-2.23056.85791-5.27614,1.89812-10.95979,2.92772-16.89008,2.92772-.38606,0-.78284,0-1.17962-.01083-11.72118-.2681-22.45576-4.57909-30.84182-11.59239,1.00804-11.26005,2.36997-20.3111,4.18231-22.91689,3.80697-5.47989,8.27882-7.49598,13.54424-8.61137,2.80965-.57909,5.78016-.88997,8.99732-1.35121,4.7185-.65416,10.40214-.51475,15.48525.06434h.06434c4.97587.5792,9.38338,1.59796,11.72118,2.74531,1.94102.9437,3.80697,16.02145,5.15818,33.67292Z"/>
    <path class="cls-7" d="M37.89029,46.38123c-.5985,2.73448-2.24052,4.69812-3.66756,4.38574-1.42692-.31228-2.09855-2.7822-1.50005-5.51678.5985-2.73448,2.24043-4.69802,3.66745-4.38563,1.42702.31228,2.09866,2.7822,1.50016,5.51668Z"/>
    <path class="cls-10" d="M89.36193,80.84172c-3.08847,3.92493-6.74531,7.37802-10.85255,10.23067-2.91689,2.02681-6.05898,3.75335-9.38338,5.13662-.73995.30038-1.47989.58981-2.23056.85791l-9.20107-41.49062s.91153-.07496,2.49866,0h.06434c5.02949.27882,19.15281.08579,29.10456,25.26542Z"/>
    <path d="M34.81941,37.90102s-4.06917-4.32601-3.05255-11.17062c.68922-4.64032,2.71861-6.17694,2.71861-6.17694,0,0-3.25684-6.2533,6.08354-6.05029,9.34028.203,16.9926-.59421,21.15453,7.43989,2.45201,4.73319,1.47603,15.0148,1.47603,15.0148l-28.38016.94316Z"/>
    <path class="cls-2" d="M55.45587,45.197l-.06638,11.39828s-2.07475,3.26466-8.74606,3.76772c-4.96965.37469-6.52761-2.18542-6.52761-2.18542l1.26134-9.96729,12.05609-2.57834,2.02263-.43496Z"/>
    <path d="M55.44257,44.50188c-.03067.31099-.1511.67775-.33769,1.09791-2.58381,5.67882-11.57298,7.99592-14.44343,8.23603l.71571-5.62552,14.06542-3.70842Z"/>
    <path class="cls-2" d="M38.98724,22.21448s-6.06552,14.25609-3.75367,22.20997c2.31185,7.95389,9.56611,6.62842,13.89887,5.04461,4.33276-1.5837,6.32504-4.26949,6.32504-4.26949,0,0,4.07453,1.33769,6.75432-2.46499,2.67989-3.80279.96558-8.12354-1.3629-9.09491-2.32858-.97137-5.06992.72954-5.06992.72954l2.12139-4.14649s-9.29555-20.87871-18.91314-8.00826Z"/>
    <path d="M55.77898,34.36922s-6.08011,1.34928-10.45105-5.36161c-4.37083-6.71088-4.03527-9.50777-4.03527-9.50777l-4.08967,7.09351s-1.03796-4.84386.84697-7.9808,3.91615-2.5334,3.91615-2.5334l13.52279,3.10349,3.75151,10.71936-3.46145,4.46724Z"/>
    <path d="M39.80956,40.32987c-.22511,0-.43562-.14349-.51004-.36922-1.00107-3.05898,1.10906-6.21383,1.20021-6.34681.16654-.24354.49952-.30681.74349-.14188.24515.16601.30897.49952.14349.74456-.01984.02831-1.90391,2.85748-1.06713,5.41008.09223.28172-.06175.58434-.34349.67657-.05555.01834-.11099.0267-.16653.0267Z"/>
    <path d="M56.48397,41.10059c-.1289,0-.25866-.04654-.36139-.14027-.21887-.19957-.23453-.53887-.03453-.75775l3.78895-4.14863c.2-.21834.53941-.23357.75723-.0341.21886.19957.23452.53887.03452.75775l-3.78894,4.14863c-.10575.11582-.25031.17437-.39583.17437Z"/>
    <path d="M60.54831,39.9392c-.02413,0-.04813-.0015-.07228-.00472l-2.67357-.36021c-.29437-.03979-.49962-.30949-.45984-.60322.03882-.29373.31314-.49952.60225-.45973l2.67357.36021c.29426.03979.49962.30949.45975.60322-.03562.26917-.26595.46445-.52988.46445Z"/>
    <path d="M36.85212,28.75828c-.25137,0-.47539-.17812-.52567-.4341-.05556-.29062.13405-.57233.42519-.62842l2.51228-.48697c.27755-.05705.57083.13308.62842.42413.05544.29062-.13405.57233-.4252.62842l-2.51239.48697c-.03346.00676-.0681.00997-.10263.00997Z"/>
    <path d="M47.36237,30.21126c-.07851,0-.15819-.01727-.23251-.0534l-4.17437-2.01383c-.26702-.12826-.37909-.44922-.25029-.71582.12879-.2681.45244-.37802.71528-.24976l4.17437,2.01383c.26702.12836.37909.44933.25029.71582-.09212.19164-.28386.30316-.48277.30316Z"/>
    <path d="M36.96525,34.58466c-.04815,0-.09845-.00686-.14765-.02048-.28484-.08161-.44933-.37855-.36763-.66338l.65769-2.30134-.61887-.7289c-.19174-.22574-.16449-.56397.06071-.7556.2283-.19164.56545-.16332.75612.06123l.80527.94777c.11623.13673.15612.32204.1069.4948l-.73727,2.57737c-.06702.23507-.28172.38853-.51528.38853Z"/>
    <path d="M44.14831,35.13491c-.04813,0-.09845-.00676-.14767-.02091-.28483-.08118-.44922-.37802-.36751-.66284l.65662-2.29351-.91528-1.02735c-.19689-.22102-.17812-.55979.0429-.75668.22198-.19743.56032-.17748.7571.04343l1.11228,1.24783c.12247.13716.16643.32729.11517.50424l-.73834,2.57727c-.06702.23517-.28172.38853-.51528.38853Z"/>
    <path d="M41.87056,44.03131c-.34145,0-.67655-.07067-.99485-.23764-.26284-.13727-.3645-.46134-.22724-.72365.1392-.26188.46595-.3629.72365-.22627,1.10381.57501,3.1333-1.1807,3.75648-1.84365.20417-.21576.5425-.22574.75818-.02306.21575.20322.22627.54198.02304.75764-.25448.27131-2.21909,2.29662-4.03925,2.29662Z"/>
    <path class="cls-2" d="M40.39131,56.00107l-5.68322.99217s.11957,7.61694,10.81147,8.57877c10.6919.96172,17.87176-9.69212,17.87176-9.69212l-11.22822-1.36129-11.7718,1.48247Z"/>
    <path class="cls-7" d="M61.01834,47.02102c.17362,2.79389-.86756,5.13212-2.32558,5.22273-1.45791.09062-2.78059-2.1008-2.95421-4.89469-.1735-2.79378.86767-5.13212,2.32558-5.22263,1.45803-.09062,2.7807,2.1008,2.95421,4.89458Z"/>
    <path class="cls-7" d="M29.77276,94.51786c-.14252,0-.28492-.05662-.3896-.16869-9.85779-10.45158-1.57405-21.06542-1.48922-21.17126.18542-.22928.52366-.26595.75303-.08375.23142.18542.26906.52257.08484.75399-.32152.40322-7.77802,10.00129,1.43044,19.7659.20322.21469.19378.55399-.02198.7571-.10359.09845-.2356.1467-.36751.1467Z"/>
  </g>
  <g>
    <path class="cls-8" d="M100,50c0,8.97587-2.37008,17.40483-6.52021,24.69705-1.17952,2.06971-2.50928,4.05362-3.96783,5.93029-2.14477,2.76676-4.56826,5.29759-7.23861,7.5496-.07507.06434-.15003.12869-.22509.18231-3.23861,2.71314-6.82048,5.01877-10.68107,6.85255-1.73716.82574-3.53877,1.55496-5.38338,2.17694-5.01877,1.68365-10.39142,2.6059-15.97844,2.6059-4.79367,0-9.42638-.6756-13.81233-1.94102-3.8607-1.10456-7.52826-2.65952-10.93844-4.61126-4.70777-2.68097-8.94359-6.1126-12.52536-10.12332-.21458-.23592-.41834-.47185-.62209-.70777-.33244-.37534-.65405-.76139-.96504-1.14745-1.47989-1.82306-2.8311-3.75335-4.0429-5.76944C2.59507,68.17694,0,59.3941,0,50,0,22.38606,22.39142.00536,50.00536.00536,77.60858.00536,100,22.38606,100,50Z"/>
    <path d="M42.28675,28.64332s-8.6682-6.92976-4.72129-12.6726c3.94702-5.74273,12.40729.09984,12.40729.09984,0,0,3.29662-3.29716,7.95936-.62917s5.1955,9.17501,5.1955,9.17501c0,0,4.7497-.1082,5.02155,5.67164.27185,5.77984-5.9496,10.92697-5.9496,10.92697l-19.91281-12.57169Z"/>
    <path class="cls-5" d="M82.04826,88.35925c-3.23861,2.71314-6.82048,5.01877-10.68107,6.85255-1.73716.82574-3.53877,1.55496-5.38338,2.17694-5.01877,1.68365-10.39142,2.6059-15.97844,2.6059-4.79367,0-9.42638-.6756-13.81233-1.94102-3.8607-1.10456-7.52826-2.65952-10.93844-4.61126l-.58971-33.41555c13.23314-9.28686,26.0697-6.97051,26.0697-6.97051,0,0,16.8578-1.91957,25.6622,6.13405,1.28686,1.17962,2.3807,2.53083,3.22788,4.12869,1.40483,2.62735,2.10188,13.17962,2.42359,25.04021Z"/>
    <path class="cls-2" d="M57.50167,44.39592l.10905,11.01394s-1.95485,3.18574-8.39303,3.7733c-4.79592.43764-6.49287-.63078-6.49287-.63078l.61394-5.58477.6059-5.44622,11.60933-2.67453,1.94768-.45094Z"/>
    <path d="M55.55399,44.84686c-.02488.30102-.13566.65716-.3096,1.06595-2.41008,5.52611-9.13587,6.77909-11.90563,7.0548l.6059-5.44622,11.60933-2.67453Z"/>
    <path class="cls-2" d="M41.24032,22.44075s-5.64365,13.86638-3.28901,21.51625c2.35453,7.64987,9.34339,6.25887,13.50563,4.66273,4.16214-1.59614,6.04633-4.22134,6.04633-4.22134,0,0,3.957,1.23056,6.48848-2.4844,2.53147-3.71485.80932-7.86349-1.45523-8.76665-2.26446-.90316-4.8873.78198-4.8873.78198l1.9866-4.03861s-9.29876-20.03153-18.3955-7.44997Z"/>
    <path d="M58.1112,39.96912c-.1645,0-.32676-.07592-.43259-.21887-.1748-.23871-.12355-.57437.11527-.74928l4.92622-3.61769c.23668-.17437.57287-.12515.74981.11464.17491.23882.12365.57448-.11517.74928l-4.92623,3.6178c-.09534.07013-.20633.10413-.31732.10413Z"/>
    <path d="M62.63324,39.86284c-.04193,0-.0859-.00472-.12889-.01566l-3.27572-.80901c-.28697-.07067-.46295-.36129-.39174-.64933.07121-.28643.36032-.46552.64933-.39164l3.27582.80901c.28697.07067.46284.36129.39164.64922-.0607.24408-.27957.4074-.52043.4074Z"/>
    <path d="M50.5186,28.25619c-.0608,0-.12257-.01051-.18327-.03249-.81265-.29587-3.15324-.4267-3.98692-.4519-.29534-.00944-.52783-.25651-.51946-.55239.00945-.29587.20525-.52204.55303-.52.32354.00997,3.19936.10842,4.31989.51689.2785.10102.42198.4089.32044.68697-.07958.2178-.28483.35292-.50371.35292Z"/>
    <path d="M39.83035,27.84408c-.25866,0-.48697-.18853-.5289-.45244-.04601-.29265.15399-.56708.44611-.61308,1.45051-.22831,1.89448-.20954,1.96997-.20268.29426.02563.51314.2859.48697.58123-.0252.29115-.28172.50424-.57083.48804-.03239-.00525-.42102-.01265-1.7185.19217-.02831.00472-.05651.00676-.08483.00676Z"/>
    <path d="M42.63281,40.0948c-.22938,0-.44097-.14767-.51217-.37802-1.37812-4.46391.92054-7.67689,1.01898-7.81147.17383-.23668.50799-.29062.74777-.11625.23871.17383.29115.50895.11829.74885-.02092.02874-2.07454,2.93019-.86081,6.86263.08794.28268-.07121.58327-.35399.67024-.05233.01619-.10574.02402-.15807.02402Z"/>
    <path d="M39.93297,33.13587c-.04504,0-.09008-.00579-.13619-.01727-.2859-.07539-.45759-.36869-.3822-.65512l.66391-2.5333c.07442-.28697.36558-.45555.65458-.38273.2859.07539.4576.36858.3822.65501l-.66391,2.5333c-.06283.24086-.28064.40011-.51839.40011Z"/>
    <path d="M46.90456,33.2029c-.04504,0-.09008-.00579-.13619-.01727-.2859-.07539-.45759-.36869-.3822-.65512l.66391-2.53276c.07539-.28643.3645-.45394.65458-.38273.2859.07539.4576.36858.3822.65501l-.66391,2.53276c-.06283.24086-.28075.40011-.51839.40011Z"/>
    <path d="M40.11163,25.56418s1.17405-2.22595,3.92139-2.27196c2.74724-.04601,4.37072,1.87314,4.37072,1.87314,0,0-1.15946,4.6385,2.60086,7.0593,3.76043,2.4207,6.64461,1.70466,6.64461,1.70466l2.70027-.9926,1.94863-3.97952-7.92311-8.37094-10.19968-5.25544-5.12418,4.74542,1.06048,5.48794Z"/>
    <path d="M44.75142,42.66842c-.13201,0-.21576-.00676-.23464-.00836-.29534-.02509-.51314-.28483-.48804-.58016.02617-.2948.31003-.51475.57812-.48804.1037.00997,2.20129.14295,3.07367-1.76933.12355-.26906.44193-.38799.7111-.26488.26917.12247.38745.44086.265.71003-1.00966,2.20965-3.18371,2.40075-3.90521,2.40075Z"/>
    <path class="cls-11" d="M43.33877,52.96761s-2.27131,2.40901-3.62499,6.85147c-.76772,2.51989-.57941,6.23925-.05018,6.24354.52921.00418,4.49458-6.13223,7.02433-6.50584s4.64622,6.97276,5.72634,7.23024c1.0801.25748,5.27978-2.63367,6.77018-6.81877,1.49041-4.1852-1.18349-6.88279-1.18349-6.88279,0,0-13.05673,9.90992-14.6622-.11786Z"/>
    <path class="cls-5" d="M36.19303,98.05362c-3.8607-1.10456-7.52826-2.65952-10.93844-4.61126-4.70777-2.68097-8.94359-6.1126-12.52536-10.12332-.21458-.23592-.41834-.47185-.62209-.70777.47185-1.44772.9867-2.89544,1.55507-4.30027,5.15807-12.84718,11.00268-18.28418,11.00268-18.28418l11.52815,38.02681Z"/>
    <path class="cls-5" d="M89.51195,80.62735c-2.14477,2.76676-4.56826,5.29759-7.23861,7.5496-.07507.06434-.15003.12869-.22509.18231-3.23861,2.71314-6.82048,5.01877-10.68107,6.85255l5.0296-36.02145s7.0563,5.437,13.11517,21.437Z"/>
    <path class="cls-11" d="M24.56032,91.4133c-.01877,0-.03764-.00097-.05544-.00311-.29534-.03035-.50895-.29319-.47861-.58756l1.02005-9.92054c.03035-.29534.31099-.51003.58745-.47861.29534.03035.50895.29319.47861.58745l-1.02005,9.92064c-.0282.27646-.2607.48172-.53201.48172Z"/>
  </g>
  <g>
    <path class="cls-8" d="M100,50c0,6.71314-1.31903,13.11517-3.72118,18.95979-1.42638,3.4637-3.22788,6.73458-5.36193,9.75871-.4934.7185-1.01877,1.41544-1.55496,2.10188-.05362.06434-.09651.12869-.15013.1822-.0429.05373-.08579.10735-.13941.16097-1.83378,2.30563-3.86059,4.4504-6.08054,6.39142-.52536.47185-1.07239.92225-1.6192,1.36182-1.90885,1.54424-3.92493,2.93845-6.05898,4.18241-1.49062.89008-3.04568,1.69437-4.63271,2.42359-.48257.22509-.97587.43968-1.47989.64343-1.85523.78284-3.77491,1.44772-5.74799,1.99453-2.84182.79367-5.78016,1.34048-8.80429,1.60858-.60054.06445-1.20107.10735-1.81233.13941-.93298.05373-1.87668.0859-2.8311.0859-.99743,0-1.98391-.03217-2.95979-.0859-.76139-.04279-1.5229-.10713-2.28418-.1822-1.12601-.11796-2.24129-.27882-3.34584-.47185-.30027-.05362-.58992-.10724-.87936-.16086-.42895-.08579-.84729-.17158-1.27614-.2681-.48257-.10724-.97598-.2252-1.45845-.34316-.2252-.05373-.46123-.10724-.68633-.17158-.47185-.12869-.9437-.25737-1.41555-.39678-.0429-.01072-.07507-.02155-.11796-.03217-1.37265-.41823-2.74531-.89008-4.06445-1.42627-.04279-.02145-.08568-.03228-.12858-.05362-.94381-.37534-1.87668-.78295-2.7882-1.22252-.61126-.27882-1.2118-.57909-1.80161-.90091-.82574-.41812-1.64075-.87925-2.43432-1.36182-.33244-.19303-.66488-.39678-.97587-.61126-.07507-.03217-.15013-.08579-.21448-.12869-.24665-.13941-.48257-.30027-.72922-.46113-.02145-.01072-.03217-.02145-.05362-.0429-.55764-.36461-1.12601-.75078-1.67303-1.14756-.28944-.21437-.57898-.41812-.8578-.6326-1.67292-1.26542-3.26005-2.62735-4.76139-4.09651-.06434-.05362-.11796-.11796-.18231-.17158-.17158-.17158-.34316-.35389-.50402-.52558-.16086-.17147-.33244-.33233-.48257-.50391-3.07775-3.18509-5.71582-6.76676-7.83914-10.67024-.40751-.73995-.79357-1.50145-1.15818-2.27346-.31099-.62198-.58981-1.25469-.86863-1.89812C1.44772,63.69437,0,57.0133,0,50,0,22.38606,22.39142.00536,50.00536.00536s49.99464,22.3807,49.99464,49.99464Z"/>
    <path class="cls-7" d="M89.07238,81.16354c-1.83378,2.30563-3.86059,4.4504-6.08054,6.39142-.52536.47185-1.07239.92225-1.6192,1.36182-1.90885,1.54424-3.92493,2.93845-6.05898,4.18241-1.49062.89008-3.04568,1.69437-4.63271,2.42359-.48257.22509-.97587.43968-1.47989.64343-2.77748-19.31378,5.1689-32.92236,5.1689-32.92236,0,0,7.02413,6.63807,14.70241,17.91968Z"/>
    <path d="M51.17533,43.13812h-11.71067l-11.63217,31.24536,44.70112-3.32343s2.65223-13.95871-4.65619-27.08654-16.70209-.83539-16.70209-.83539Z"/>
    <path d="M49.73726,31.11528l-13.80172,35.83914s-3.03475,22.79893-7.33501,28.2252c-.61126-.27882-1.2118-.57909-1.80161-.90091-.82574-.41812-1.64075-.87925-2.43432-1.36182-.33244-.19303-.66488-.39678-.97587-.61126-.07507-.03217-.15013-.08579-.21448-.12869-.24665-.13941-.48257-.30027-.72922-.46113-.02145-.01072-.03217-.02145-.05362-.0429-.55764-.36461-1.12601-.75078-1.67303-1.14756-.28944-.21437-.57898-.41812-.8578-.6326-1.67292-1.26542-3.26005-2.62735-4.76139-4.09651-.23592-.2252-.47196-.46113-.68633-.69716-.16086-.17147-.33244-.33233-.48257-.50391-3.07775-3.18509-5.71582-6.76676-7.83914-10.67024-.40751-.73995-.79357-1.50145-1.15818-2.27346,1.04011-2.61662,2.57373-4.75067,4.43968-5.90885,7.36729-4.55764,10.80954-.54692,13.90885-4.28954,4.12869-4.96515-.62198-8.31099,1.58713-14.98123,2.26273-6.80965,7.12064-6.67024,11.58177-9.42627,4.11796-2.53083,3.77469-8.2681,4.23592-10.563.24665-1.24408.43968-.69705.80429-.46113l8.24665,5.09383Z"/>
    <path d="M40.89458,29.94155c-.47979-1.06263-.66434-2.24172-.48482-3.39367.19174-1.23003.56686-2.54853.83989-3.27239,1.34874-3.57491,5.18134-10.19067,14.90167-9.21351,13.22487,1.32933,11.72611,25.07088,11.72611,25.07088l-23.64901-1.80643-3.33383-7.38488Z"/>
    <path class="cls-11" d="M81.37265,88.91678c-1.90885,1.54424-3.92493,2.93845-6.05898,4.18241-1.49062.89008-3.04568,1.69437-4.63271,2.42359-2.31635,1.06166-4.72922,1.94102-7.22788,2.63796-2.84182.79367-5.78016,1.34048-8.80429,1.60858-.60054.06445-1.20107.10735-1.81233.13941-.93298.05373-1.87668.0859-2.8311.0859-.99743,0-1.98391-.03217-2.95979-.0859-.76139-.04279-1.5229-.10713-2.28418-.1822-1.12601-.11796-2.24129-.27882-3.34584-.47185-.72922-.12869-1.437-.2681-2.1555-.42895-.48257-.10724-.97598-.2252-1.45845-.34316-.2252-.05373-.46123-.10724-.68633-.17158-.47185-.12869-.9437-.25737-1.41555-.39678-1.41555-.41834-2.82038-.91153-4.18241-1.45845-.04279-.02145-.08568-.03228-.12858-.05362-1.57641-.63271-3.10992-1.32976-4.58981-2.12343-.82574-.41812-1.64075-.87925-2.43432-1.36182-.33244-.19303-.66488-.39678-.97587-.61126.99732-10.30563,3.17426-19.61405,7.38863-24.89008,3.94649-4.92225,8.34327-8.07507,12.46113-10.09115,8.55775-4.18231,16.02145-3.48525,16.02145-3.48525,12.65426,1.55496,19.5497,14.49855,21.16901,22.7882.36461,1.87668.6756,6.40214.9437,12.28944Z"/>
    <path class="cls-2" d="M63.30092,60.59099s-.7378,1.43571-5.06499,1.03689c-6.66038-.61823-8.7941-3.58938-8.7941-3.58938l-.29898-11.36643,2.03389.39882,12.06434,2.33319.01984,5.54359.04001,5.64332Z"/>
    <path d="M63.26091,54.94767c-3.17051-.31903-9.25255-1.63517-11.72525-6.79989-.19935-.39882-.31903-.77769-.35893-1.07689l12.06434,2.33319.01984,5.54359Z"/>
    <path class="cls-2" d="M65.12665,23.44815s6.32021,14.09512,4.16815,22.06831c-2.15185,7.9734-9.40879,6.7911-13.7585,5.29555-4.3496-1.49576-6.38713-4.1348-6.38713-4.1348,0,0-4.03582,1.41169-6.78038-2.32772-2.74445-3.7393-1.11828-8.07946,1.18413-9.09244,2.30262-1.01308,5.06798.62992,5.06798.62992l-2.19432-4.09265s8.86584-20.99174,18.70005-8.34617Z"/>
    <path d="M67.20772,35.42188c-.26176,0-.49062-.19164-.52986-.45812l-.38692-2.63078c-.02252-.15282.02198-.30842.12247-.42617l1.05619-1.23786c.19367-.2252.53201-.2519.75603-.05973.2252.19217.2519.53051.05974.75614l-.89802,1.05244.35131,2.38992c.043.29265-.15914.56547-.45233.60836-.02616.00429-.05287.00579-.07861.00579Z"/>
    <path d="M56.92064,30.99517c-.08279,0-.16654-.01887-.24461-.0592-.26338-.13566-.36707-.4592-.23195-.72204.99024-1.92279,3.41512-1.42273,3.51721-1.40075.28901.06231.47174.3467.41051.63571-.06123.28954-.34295.47174-.63517.41308-.0696-.01566-1.7274-.3466-2.33844.84204-.09534.18488-.28278.29115-.47753.29115Z"/>
    <path d="M67.01501,29.36568c-.17115,0-.33877-.08172-.4429-.23303-.10166-.1466-.47131-.56504-.82477-.56504-.29169.00054-.56236.30735-.73834.5645-.16643.24397-.49951.30735-.74509.13984-.2445-.16708-.30682-.50113-.13984-.7452.4682-.68483,1.01426-1.03153,1.62327-1.03153.98231.00161,1.63893.9274,1.71067,1.03314.16654.24504.10263.57855-.14241.74456-.09212.06284-.19689.09276-.30059.09276Z"/>
    <path d="M48.62091,35.88697s6.19314.1659,10.42145-6.60761c4.22842-6.77383,3.73416-8.49308,3.73416-8.49308l4.21286,6.99292s.94188-4.84869-.99721-7.93952c-1.9393-3.09115-3.95249-2.4504-3.95249-2.4504l-13.42091,3.35324-3.53416,10.75764,3.5363,4.38681Z"/>
    <path d="M59.37801,36.05072c-.26606,0-.49694-.19732-.53147-.46863l-.33619-2.63743c-.02145-.16761.03764-.33619.15968-.45351l1.36043-1.3111c.21362-.20536.55292-.1985.75818.01351.20579.21373.19946.55303-.01362.75828l-1.16665,1.12472.30209,2.37051c.03721.29373-.17062.56182-.46445.59946-.02252.00268-.04547.00418-.06799.00418Z"/>
    <path d="M65.79078,40.63249c-.29265,0-.53201-.23507-.53619-.52836-.03871-2.73587-1.66145-6.30499-1.67764-6.34059-.12354-.26906-.00525-.58745.26391-.7111.27067-.123.58692-.00461.7111.26391.07067.15453,1.73319,3.81255,1.77501,6.77212.00418.2963-.23249.53984-.52826.54402h-.00794Z"/>
    <path d="M62.42649,46.00643c-.06381,0-.12879-.00257-.19474-.00729-1.86671-.13351-2.84172-2.56161-2.88257-2.66477-.07068-.18005-.03925-.38488.08321-.53458.1215-.15078.31217-.22563.50638-.19003l4.84354.83099c.17072.02928.31625.13877.39164.29426.0755.1555.07174.33769-.01094.48954-.04086.07539-.98702,1.78188-2.73651,1.78188ZM60.84568,43.8533c.35979.51946.87025,1.03421,1.46252,1.07657.59217.03979,1.07764-.26649,1.40804-.58434l-2.87056-.49223Z"/>
    <path d="M48.10584,41.85094c-.13973,0-.27903-.05437-.38434-.16225l-3.87743-3.98853c-.20633-.21255-.20161-.55185.01051-.75818.21255-.2074.55185-.20107.75818.01051l3.87743,3.98842c.20632.21255.20161.55196-.01041.75818-.10424.10166-.23936.15185-.37394.15185Z"/>
    <path d="M43.45297,41.85094c-.22155,0-.42842-.13769-.50584-.35861-.09845-.27914.04869-.58542.32826-.68332l3.46799-1.21855c.27914-.09898.58488.04869.68332.32836.09845.27903-.04869.58542-.32826.68332l-3.46799,1.21845c-.05866.02091-.11839.03035-.17748.03035Z"/>
    <path class="cls-3" d="M59.91045,62.25877c-6.86788,0-10.65416-3.64965-10.84579-3.83925-.21051-.20783-.21212-.5466-.00472-.7571.20783-.21105.54713-.21265.75818-.00579.05394.05233,5.47979,5.2415,14.98145,2.91399.28697-.07335.57866.1052.64826.39271.07066.28751-.10521.57812-.39271.64826-1.86938.4592-3.58681.64718-5.14466.64718Z"/>
    <path class="cls-7" d="M46.16622,89.07775c-1.32976,4.17158-3.33512,7.44236-5.63003,10.01609-.42895-.08579-.84729-.17158-1.27614-.2681-.48257-.10724-.97598-.2252-1.45845-.34316-.2252-.05373-.46123-.10724-.68633-.17158-.47185-.12869-.9437-.25737-1.41555-.39678-.0429-.01072-.07507-.02155-.11796-.03217-1.37265-.41823-2.74531-.89008-4.06445-1.42627-.04279-.02145-.08568-.03228-.12858-.05362-.94381-.37534-1.87668-.78295-2.7882-1.22252-.61126-.27882-1.2118-.57909-1.80161-.90091-.82574-.41812-1.64075-.87925-2.43432-1.36182-.33244-.19303-.66488-.39678-.97587-.61126.99732-10.30563,3.17426-19.61405,7.38863-24.89008,3.94649-4.92225,8.34327-8.07507,12.46113-10.09115,2.60601,5.76944,7.1422,18.6059,2.92772,31.75335Z"/>
    <path class="cls-7" d="M39.30295,59.57641l-3.72118,38.30563c-1.37265-.41823-2.74531-.89008-4.06445-1.42627-.04279-.02145-.08568-.03228-.12858-.05362-.94381-.37534-1.87668-.78295-2.7882-1.22252-.61126-.27882-1.2118-.57909-1.80161-.90091-.82574-.41812-1.64075-.87925-2.43432-1.36182-.33244-.19303-.66488-.39678-.97587-.61126-.07507-.03217-.15013-.08579-.21448-.12869-.24665-.13941-.48257-.30027-.72922-.46113-.02145-.01072-.03217-.02145-.05362-.0429-.55764-.36461-1.12601-.75078-1.67303-1.14756-.28944-.21437-.57898-.41812-.8578-.6326-1.67292-1.26542-3.26005-2.62735-4.76139-4.09651-.06434-.05362-.11796-.11796-.18231-.17158,8.79357-16.37534,24.38606-26.04826,24.38606-26.04826Z"/>
  </g>
</svg>